<?xml version="1.0" encoding="UTF-8"?>
<svg width="792px" height="429px" viewBox="0 0 792 429" version="1.1" xmlns="http://www.w3.org/2000/svg" xmlns:xlink="http://www.w3.org/1999/xlink" style="background: #FFFFFF;">
    <!-- Generator: Sketch 48.2 (47327) - http://www.bohemiancoding.com/sketch -->
    <title>Artboard</title>
    <desc>Created with Sketch.</desc>
    <defs></defs>
    <g id="Page-1" stroke="none" stroke-width="1" fill="none" fill-rule="evenodd" opacity="0.05">
        <g id="Artboard" stroke="#404042">
            <polyline id="Path-3" points="0 17 50.389734 -3 100.379549 17 150.369365 -3 200.35918 17 250.11203 -3 300.101845 17 350.091661 -3 400.081476 17 450.071292 -3 500.061107 17 550.050923 -3 600.040738 17 650.030554 -3 700.020369 17 750.010185 -3 800 17"></polyline>
            <polyline id="Path-3-Copy" points="0 47 50.389734 27 100.379549 47 150.369365 27 200.35918 47 250.11203 27 300.101845 47 350.091661 27 400.081476 47 450.071292 27 500.061107 47 550.050923 27 600.040738 47 650.030554 27 700.020369 47 750.010185 27 800 47"></polyline>
            <polyline id="Path-3-Copy-2" points="0 77 50.389734 57 100.379549 77 150.369365 57 200.35918 77 250.11203 57 300.101845 77 350.091661 57 400.081476 77 450.071292 57 500.061107 77 550.050923 57 600.040738 77 650.030554 57 700.020369 77 750.010185 57 800 77"></polyline>
            <polyline id="Path-3-Copy-3" points="0 107 50.389734 87 100.379549 107 150.369365 87 200.35918 107 250.11203 87 300.101845 107 350.091661 87 400.081476 107 450.071292 87 500.061107 107 550.050923 87 600.040738 107 650.030554 87 700.020369 107 750.010185 87 800 107"></polyline>
            <polyline id="Path-3-Copy-4" points="0 137 50.389734 117 100.379549 137 150.369365 117 200.35918 137 250.11203 117 300.101845 137 350.091661 117 400.081476 137 450.071292 117 500.061107 137 550.050923 117 600.040738 137 650.030554 117 700.020369 137 750.010185 117 800 137"></polyline>
            <polyline id="Path-3-Copy-5" points="0 167 50.389734 147 100.379549 167 150.369365 147 200.35918 167 250.11203 147 300.101845 167 350.091661 147 400.081476 167 450.071292 147 500.061107 167 550.050923 147 600.040738 167 650.030554 147 700.020369 167 750.010185 147 800 167"></polyline>
            <polyline id="Path-3-Copy-6" points="0 197 50.389734 177 100.379549 197 150.369365 177 200.35918 197 250.11203 177 300.101845 197 350.091661 177 400.081476 197 450.071292 177 500.061107 197 550.050923 177 600.040738 197 650.030554 177 700.020369 197 750.010185 177 800 197"></polyline>
            <polyline id="Path-3-Copy-7" points="0 227 50.389734 207 100.379549 227 150.369365 207 200.35918 227 250.11203 207 300.101845 227 350.091661 207 400.081476 227 450.071292 207 500.061107 227 550.050923 207 600.040738 227 650.030554 207 700.020369 227 750.010185 207 800 227"></polyline>
            <polyline id="Path-3-Copy-8" points="0 257 50.389734 237 100.379549 257 150.369365 237 200.35918 257 250.11203 237 300.101845 257 350.091661 237 400.081476 257 450.071292 237 500.061107 257 550.050923 237 600.040738 257 650.030554 237 700.020369 257 750.010185 237 800 257"></polyline>
            <polyline id="Path-3-Copy-9" points="0 287 50.389734 267 100.379549 287 150.369365 267 200.35918 287 250.11203 267 300.101845 287 350.091661 267 400.081476 287 450.071292 267 500.061107 287 550.050923 267 600.040738 287 650.030554 267 700.020369 287 750.010185 267 800 287"></polyline>
            <polyline id="Path-3-Copy-10" points="0 317 50.389734 297 100.379549 317 150.369365 297 200.35918 317 250.11203 297 300.101845 317 350.091661 297 400.081476 317 450.071292 297 500.061107 317 550.050923 297 600.040738 317 650.030554 297 700.020369 317 750.010185 297 800 317"></polyline>
            <polyline id="Path-3-Copy-11" points="0 347 50.389734 327 100.379549 347 150.369365 327 200.35918 347 250.11203 327 300.101845 347 350.091661 327 400.081476 347 450.071292 327 500.061107 347 550.050923 327 600.040738 347 650.030554 327 700.020369 347 750.010185 327 800 347"></polyline>
            <polyline id="Path-3" points="0 12 50.389734 -8 100.379549 12 150.369365 -8 200.35918 12 250.11203 -8 300.101845 12 350.091661 -8 400.081476 12 450.071292 -8 500.061107 12 550.050923 -8 600.040738 12 650.030554 -8 700.020369 12 750.010185 -8 800 12"></polyline>
            <polyline id="Path-3-Copy" points="0 42 50.389734 22 100.379549 42 150.369365 22 200.35918 42 250.11203 22 300.101845 42 350.091661 22 400.081476 42 450.071292 22 500.061107 42 550.050923 22 600.040738 42 650.030554 22 700.020369 42 750.010185 22 800 42"></polyline>
            <polyline id="Path-3-Copy-2" points="0 72 50.389734 52 100.379549 72 150.369365 52 200.35918 72 250.11203 52 300.101845 72 350.091661 52 400.081476 72 450.071292 52 500.061107 72 550.050923 52 600.040738 72 650.030554 52 700.020369 72 750.010185 52 800 72"></polyline>
            <polyline id="Path-3-Copy-3" points="0 102 50.389734 82 100.379549 102 150.369365 82 200.35918 102 250.11203 82 300.101845 102 350.091661 82 400.081476 102 450.071292 82 500.061107 102 550.050923 82 600.040738 102 650.030554 82 700.020369 102 750.010185 82 800 102"></polyline>
            <polyline id="Path-3-Copy-4" points="0 132 50.389734 112 100.379549 132 150.369365 112 200.35918 132 250.11203 112 300.101845 132 350.091661 112 400.081476 132 450.071292 112 500.061107 132 550.050923 112 600.040738 132 650.030554 112 700.020369 132 750.010185 112 800 132"></polyline>
            <polyline id="Path-3-Copy-5" points="0 162 50.389734 142 100.379549 162 150.369365 142 200.35918 162 250.11203 142 300.101845 162 350.091661 142 400.081476 162 450.071292 142 500.061107 162 550.050923 142 600.040738 162 650.030554 142 700.020369 162 750.010185 142 800 162"></polyline>
            <polyline id="Path-3-Copy-6" points="0 192 50.389734 172 100.379549 192 150.369365 172 200.35918 192 250.11203 172 300.101845 192 350.091661 172 400.081476 192 450.071292 172 500.061107 192 550.050923 172 600.040738 192 650.030554 172 700.020369 192 750.010185 172 800 192"></polyline>
            <polyline id="Path-3-Copy-7" points="0 222 50.389734 202 100.379549 222 150.369365 202 200.35918 222 250.11203 202 300.101845 222 350.091661 202 400.081476 222 450.071292 202 500.061107 222 550.050923 202 600.040738 222 650.030554 202 700.020369 222 750.010185 202 800 222"></polyline>
            <polyline id="Path-3-Copy-8" points="0 252 50.389734 232 100.379549 252 150.369365 232 200.35918 252 250.11203 232 300.101845 252 350.091661 232 400.081476 252 450.071292 232 500.061107 252 550.050923 232 600.040738 252 650.030554 232 700.020369 252 750.010185 232 800 252"></polyline>
            <polyline id="Path-3-Copy-9" points="0 282 50.389734 262 100.379549 282 150.369365 262 200.35918 282 250.11203 262 300.101845 282 350.091661 262 400.081476 282 450.071292 262 500.061107 282 550.050923 262 600.040738 282 650.030554 262 700.020369 282 750.010185 262 800 282"></polyline>
            <polyline id="Path-3-Copy-10" points="0 312 50.389734 292 100.379549 312 150.369365 292 200.35918 312 250.11203 292 300.101845 312 350.091661 292 400.081476 312 450.071292 292 500.061107 312 550.050923 292 600.040738 312 650.030554 292 700.020369 312 750.010185 292 800 312"></polyline>
            <polyline id="Path-3-Copy-11" points="0 342 50.389734 322 100.379549 342 150.369365 322 200.35918 342 250.11203 322 300.101845 342 350.091661 322 400.081476 342 450.071292 322 500.061107 342 550.050923 322 600.040738 342 650.030554 322 700.020369 342 750.010185 322 800 342"></polyline>
            <polyline id="Path-3" points="0 7 50.389734 -13 100.379549 7 150.369365 -13 200.35918 7 250.11203 -13 300.101845 7 350.091661 -13 400.081476 7 450.071292 -13 500.061107 7 550.050923 -13 600.040738 7 650.030554 -13 700.020369 7 750.010185 -13 800 7"></polyline>
            <polyline id="Path-3-Copy" points="0 37 50.389734 17 100.379549 37 150.369365 17 200.35918 37 250.11203 17 300.101845 37 350.091661 17 400.081476 37 450.071292 17 500.061107 37 550.050923 17 600.040738 37 650.030554 17 700.020369 37 750.010185 17 800 37"></polyline>
            <polyline id="Path-3-Copy-2" points="0 67 50.389734 47 100.379549 67 150.369365 47 200.35918 67 250.11203 47 300.101845 67 350.091661 47 400.081476 67 450.071292 47 500.061107 67 550.050923 47 600.040738 67 650.030554 47 700.020369 67 750.010185 47 800 67"></polyline>
            <polyline id="Path-3-Copy-3" points="0 97 50.389734 77 100.379549 97 150.369365 77 200.35918 97 250.11203 77 300.101845 97 350.091661 77 400.081476 97 450.071292 77 500.061107 97 550.050923 77 600.040738 97 650.030554 77 700.020369 97 750.010185 77 800 97"></polyline>
            <polyline id="Path-3-Copy-4" points="0 127 50.389734 107 100.379549 127 150.369365 107 200.35918 127 250.11203 107 300.101845 127 350.091661 107 400.081476 127 450.071292 107 500.061107 127 550.050923 107 600.040738 127 650.030554 107 700.020369 127 750.010185 107 800 127"></polyline>
            <polyline id="Path-3-Copy-5" points="0 157 50.389734 137 100.379549 157 150.369365 137 200.35918 157 250.11203 137 300.101845 157 350.091661 137 400.081476 157 450.071292 137 500.061107 157 550.050923 137 600.040738 157 650.030554 137 700.020369 157 750.010185 137 800 157"></polyline>
            <polyline id="Path-3-Copy-6" points="0 187 50.389734 167 100.379549 187 150.369365 167 200.35918 187 250.11203 167 300.101845 187 350.091661 167 400.081476 187 450.071292 167 500.061107 187 550.050923 167 600.040738 187 650.030554 167 700.020369 187 750.010185 167 800 187"></polyline>
            <polyline id="Path-3-Copy-7" points="0 217 50.389734 197 100.379549 217 150.369365 197 200.35918 217 250.11203 197 300.101845 217 350.091661 197 400.081476 217 450.071292 197 500.061107 217 550.050923 197 600.040738 217 650.030554 197 700.020369 217 750.010185 197 800 217"></polyline>
            <polyline id="Path-3-Copy-8" points="0 247 50.389734 227 100.379549 247 150.369365 227 200.35918 247 250.11203 227 300.101845 247 350.091661 227 400.081476 247 450.071292 227 500.061107 247 550.050923 227 600.040738 247 650.030554 227 700.020369 247 750.010185 227 800 247"></polyline>
            <polyline id="Path-3-Copy-9" points="0 277 50.389734 257 100.379549 277 150.369365 257 200.35918 277 250.11203 257 300.101845 277 350.091661 257 400.081476 277 450.071292 257 500.061107 277 550.050923 257 600.040738 277 650.030554 257 700.020369 277 750.010185 257 800 277"></polyline>
            <polyline id="Path-3-Copy-10" points="0 307 50.389734 287 100.379549 307 150.369365 287 200.35918 307 250.11203 287 300.101845 307 350.091661 287 400.081476 307 450.071292 287 500.061107 307 550.050923 287 600.040738 307 650.030554 287 700.020369 307 750.010185 287 800 307"></polyline>
            <polyline id="Path-3-Copy-11" points="0 337 50.389734 317 100.379549 337 150.369365 317 200.35918 337 250.11203 317 300.101845 337 350.091661 317 400.081476 337 450.071292 317 500.061107 337 550.050923 317 600.040738 337 650.030554 317 700.020369 337 750.010185 317 800 337"></polyline>
            <polyline id="Path-3-Copy-12" points="0 367 50.389734 347 100.379549 367 150.369365 347 200.35918 367 250.11203 347 300.101845 367 350.091661 347 400.081476 367 450.071292 347 500.061107 367 550.050923 347 600.040738 367 650.030554 347 700.020369 367 750.010185 347 800 367"></polyline>
            <polyline id="Path-3" points="0 2 50.389734 -18 100.379549 2 150.369365 -18 200.35918 2 250.11203 -18 300.101845 2 350.091661 -18 400.081476 2 450.071292 -18 500.061107 2 550.050923 -18 600.040738 2 650.030554 -18 700.020369 2 750.010185 -18 800 2"></polyline>
            <polyline id="Path-3-Copy" points="0 32 50.389734 12 100.379549 32 150.369365 12 200.35918 32 250.11203 12 300.101845 32 350.091661 12 400.081476 32 450.071292 12 500.061107 32 550.050923 12 600.040738 32 650.030554 12 700.020369 32 750.010185 12 800 32"></polyline>
            <polyline id="Path-3-Copy-2" points="0 62 50.389734 42 100.379549 62 150.369365 42 200.35918 62 250.11203 42 300.101845 62 350.091661 42 400.081476 62 450.071292 42 500.061107 62 550.050923 42 600.040738 62 650.030554 42 700.020369 62 750.010185 42 800 62"></polyline>
            <polyline id="Path-3-Copy-3" points="0 92 50.389734 72 100.379549 92 150.369365 72 200.35918 92 250.11203 72 300.101845 92 350.091661 72 400.081476 92 450.071292 72 500.061107 92 550.050923 72 600.040738 92 650.030554 72 700.020369 92 750.010185 72 800 92"></polyline>
            <polyline id="Path-3-Copy-4" points="0 122 50.389734 102 100.379549 122 150.369365 102 200.35918 122 250.11203 102 300.101845 122 350.091661 102 400.081476 122 450.071292 102 500.061107 122 550.050923 102 600.040738 122 650.030554 102 700.020369 122 750.010185 102 800 122"></polyline>
            <polyline id="Path-3-Copy-5" points="0 152 50.389734 132 100.379549 152 150.369365 132 200.35918 152 250.11203 132 300.101845 152 350.091661 132 400.081476 152 450.071292 132 500.061107 152 550.050923 132 600.040738 152 650.030554 132 700.020369 152 750.010185 132 800 152"></polyline>
            <polyline id="Path-3-Copy-6" points="0 182 50.389734 162 100.379549 182 150.369365 162 200.35918 182 250.11203 162 300.101845 182 350.091661 162 400.081476 182 450.071292 162 500.061107 182 550.050923 162 600.040738 182 650.030554 162 700.020369 182 750.010185 162 800 182"></polyline>
            <polyline id="Path-3-Copy-7" points="0 212 50.389734 192 100.379549 212 150.369365 192 200.35918 212 250.11203 192 300.101845 212 350.091661 192 400.081476 212 450.071292 192 500.061107 212 550.050923 192 600.040738 212 650.030554 192 700.020369 212 750.010185 192 800 212"></polyline>
            <polyline id="Path-3-Copy-8" points="0 242 50.389734 222 100.379549 242 150.369365 222 200.35918 242 250.11203 222 300.101845 242 350.091661 222 400.081476 242 450.071292 222 500.061107 242 550.050923 222 600.040738 242 650.030554 222 700.020369 242 750.010185 222 800 242"></polyline>
            <polyline id="Path-3-Copy-9" points="0 272 50.389734 252 100.379549 272 150.369365 252 200.35918 272 250.11203 252 300.101845 272 350.091661 252 400.081476 272 450.071292 252 500.061107 272 550.050923 252 600.040738 272 650.030554 252 700.020369 272 750.010185 252 800 272"></polyline>
            <polyline id="Path-3-Copy-10" points="0 302 50.389734 282 100.379549 302 150.369365 282 200.35918 302 250.11203 282 300.101845 302 350.091661 282 400.081476 302 450.071292 282 500.061107 302 550.050923 282 600.040738 302 650.030554 282 700.020369 302 750.010185 282 800 302"></polyline>
            <polyline id="Path-3-Copy-11" points="0 332 50.389734 312 100.379549 332 150.369365 312 200.35918 332 250.11203 312 300.101845 332 350.091661 312 400.081476 332 450.071292 312 500.061107 332 550.050923 312 600.040738 332 650.030554 312 700.020369 332 750.010185 312 800 332"></polyline>
            <polyline id="Path-3-Copy-12" points="0 362 50.389734 342 100.379549 362 150.369365 342 200.35918 362 250.11203 342 300.101845 362 350.091661 342 400.081476 362 450.071292 342 500.061107 362 550.050923 342 600.040738 362 650.030554 342 700.020369 362 750.010185 342 800 362"></polyline>
            <polyline id="Path-3" points="0 27 50.389734 7 100.379549 27 150.369365 7 200.35918 27 250.11203 7 300.101845 27 350.091661 7 400.081476 27 450.071292 7 500.061107 27 550.050923 7 600.040738 27 650.030554 7 700.020369 27 750.010185 7 800 27"></polyline>
            <polyline id="Path-3-Copy" points="0 57 50.389734 37 100.379549 57 150.369365 37 200.35918 57 250.11203 37 300.101845 57 350.091661 37 400.081476 57 450.071292 37 500.061107 57 550.050923 37 600.040738 57 650.030554 37 700.020369 57 750.010185 37 800 57"></polyline>
            <polyline id="Path-3-Copy-2" points="0 87 50.389734 67 100.379549 87 150.369365 67 200.35918 87 250.11203 67 300.101845 87 350.091661 67 400.081476 87 450.071292 67 500.061107 87 550.050923 67 600.040738 87 650.030554 67 700.020369 87 750.010185 67 800 87"></polyline>
            <polyline id="Path-3-Copy-3" points="0 117 50.389734 97 100.379549 117 150.369365 97 200.35918 117 250.11203 97 300.101845 117 350.091661 97 400.081476 117 450.071292 97 500.061107 117 550.050923 97 600.040738 117 650.030554 97 700.020369 117 750.010185 97 800 117"></polyline>
            <polyline id="Path-3-Copy-4" points="0 147 50.389734 127 100.379549 147 150.369365 127 200.35918 147 250.11203 127 300.101845 147 350.091661 127 400.081476 147 450.071292 127 500.061107 147 550.050923 127 600.040738 147 650.030554 127 700.020369 147 750.010185 127 800 147"></polyline>
            <polyline id="Path-3-Copy-5" points="0 177 50.389734 157 100.379549 177 150.369365 157 200.35918 177 250.11203 157 300.101845 177 350.091661 157 400.081476 177 450.071292 157 500.061107 177 550.050923 157 600.040738 177 650.030554 157 700.020369 177 750.010185 157 800 177"></polyline>
            <polyline id="Path-3-Copy-6" points="0 207 50.389734 187 100.379549 207 150.369365 187 200.35918 207 250.11203 187 300.101845 207 350.091661 187 400.081476 207 450.071292 187 500.061107 207 550.050923 187 600.040738 207 650.030554 187 700.020369 207 750.010185 187 800 207"></polyline>
            <polyline id="Path-3-Copy-7" points="0 237 50.389734 217 100.379549 237 150.369365 217 200.35918 237 250.11203 217 300.101845 237 350.091661 217 400.081476 237 450.071292 217 500.061107 237 550.050923 217 600.040738 237 650.030554 217 700.020369 237 750.010185 217 800 237"></polyline>
            <polyline id="Path-3-Copy-8" points="0 267 50.389734 247 100.379549 267 150.369365 247 200.35918 267 250.11203 247 300.101845 267 350.091661 247 400.081476 267 450.071292 247 500.061107 267 550.050923 247 600.040738 267 650.030554 247 700.020369 267 750.010185 247 800 267"></polyline>
            <polyline id="Path-3-Copy-9" points="0 297 50.389734 277 100.379549 297 150.369365 277 200.35918 297 250.11203 277 300.101845 297 350.091661 277 400.081476 297 450.071292 277 500.061107 297 550.050923 277 600.040738 297 650.030554 277 700.020369 297 750.010185 277 800 297"></polyline>
            <polyline id="Path-3-Copy-10" points="0 327 50.389734 307 100.379549 327 150.369365 307 200.35918 327 250.11203 307 300.101845 327 350.091661 307 400.081476 327 450.071292 307 500.061107 327 550.050923 307 600.040738 327 650.030554 307 700.020369 327 750.010185 307 800 327"></polyline>
            <polyline id="Path-3-Copy-11" points="0 357 50.389734 337 100.379549 357 150.369365 337 200.35918 357 250.11203 337 300.101845 357 350.091661 337 400.081476 357 450.071292 337 500.061107 357 550.050923 337 600.040738 357 650.030554 337 700.020369 357 750.010185 337 800 357"></polyline>
            <polyline id="Path-3" points="0 22 50.389734 2 100.379549 22 150.369365 2 200.35918 22 250.11203 2 300.101845 22 350.091661 2 400.081476 22 450.071292 2 500.061107 22 550.050923 2 600.040738 22 650.030554 2 700.020369 22 750.010185 2 800 22"></polyline>
            <polyline id="Path-3-Copy" points="0 52 50.389734 32 100.379549 52 150.369365 32 200.35918 52 250.11203 32 300.101845 52 350.091661 32 400.081476 52 450.071292 32 500.061107 52 550.050923 32 600.040738 52 650.030554 32 700.020369 52 750.010185 32 800 52"></polyline>
            <polyline id="Path-3-Copy-2" points="0 82 50.389734 62 100.379549 82 150.369365 62 200.35918 82 250.11203 62 300.101845 82 350.091661 62 400.081476 82 450.071292 62 500.061107 82 550.050923 62 600.040738 82 650.030554 62 700.020369 82 750.010185 62 800 82"></polyline>
            <polyline id="Path-3-Copy-3" points="0 112 50.389734 92 100.379549 112 150.369365 92 200.35918 112 250.11203 92 300.101845 112 350.091661 92 400.081476 112 450.071292 92 500.061107 112 550.050923 92 600.040738 112 650.030554 92 700.020369 112 750.010185 92 800 112"></polyline>
            <polyline id="Path-3-Copy-4" points="0 142 50.389734 122 100.379549 142 150.369365 122 200.35918 142 250.11203 122 300.101845 142 350.091661 122 400.081476 142 450.071292 122 500.061107 142 550.050923 122 600.040738 142 650.030554 122 700.020369 142 750.010185 122 800 142"></polyline>
            <polyline id="Path-3-Copy-5" points="0 172 50.389734 152 100.379549 172 150.369365 152 200.35918 172 250.11203 152 300.101845 172 350.091661 152 400.081476 172 450.071292 152 500.061107 172 550.050923 152 600.040738 172 650.030554 152 700.020369 172 750.010185 152 800 172"></polyline>
            <polyline id="Path-3-Copy-6" points="0 202 50.389734 182 100.379549 202 150.369365 182 200.35918 202 250.11203 182 300.101845 202 350.091661 182 400.081476 202 450.071292 182 500.061107 202 550.050923 182 600.040738 202 650.030554 182 700.020369 202 750.010185 182 800 202"></polyline>
            <polyline id="Path-3-Copy-7" points="0 232 50.389734 212 100.379549 232 150.369365 212 200.35918 232 250.11203 212 300.101845 232 350.091661 212 400.081476 232 450.071292 212 500.061107 232 550.050923 212 600.040738 232 650.030554 212 700.020369 232 750.010185 212 800 232"></polyline>
            <polyline id="Path-3-Copy-8" points="0 262 50.389734 242 100.379549 262 150.369365 242 200.35918 262 250.11203 242 300.101845 262 350.091661 242 400.081476 262 450.071292 242 500.061107 262 550.050923 242 600.040738 262 650.030554 242 700.020369 262 750.010185 242 800 262"></polyline>
            <polyline id="Path-3-Copy-9" points="0 292 50.389734 272 100.379549 292 150.369365 272 200.35918 292 250.11203 272 300.101845 292 350.091661 272 400.081476 292 450.071292 272 500.061107 292 550.050923 272 600.040738 292 650.030554 272 700.020369 292 750.010185 272 800 292"></polyline>
            <polyline id="Path-3-Copy-10" points="0 322 50.389734 302 100.379549 322 150.369365 302 200.35918 322 250.11203 302 300.101845 322 350.091661 302 400.081476 322 450.071292 302 500.061107 322 550.050923 302 600.040738 322 650.030554 302 700.020369 322 750.010185 302 800 322"></polyline>
            <polyline id="Path-3-Copy-11" points="0 352 50.389734 332 100.379549 352 150.369365 332 200.35918 352 250.11203 332 300.101845 352 350.091661 332 400.081476 352 450.071292 332 500.061107 352 550.050923 332 600.040738 352 650.030554 332 700.020369 352 750.010185 332 800 352"></polyline>
            <polyline id="Path-3-Copy-12" points="0 377 50.389734 357 100.379549 377 150.369365 357 200.35918 377 250.11203 357 300.101845 377 350.091661 357 400.081476 377 450.071292 357 500.061107 377 550.050923 357 600.040738 377 650.030554 357 700.020369 377 750.010185 357 800 377"></polyline>
            <polyline id="Path-3-Copy-13" points="0 407 50.389734 387 100.379549 407 150.369365 387 200.35918 407 250.11203 387 300.101845 407 350.091661 387 400.081476 407 450.071292 387 500.061107 407 550.050923 387 600.040738 407 650.030554 387 700.020369 407 750.010185 387 800 407"></polyline>
            <polyline id="Path-3-Copy-14" points="0 437 50.389734 417 100.379549 437 150.369365 417 200.35918 437 250.11203 417 300.101845 437 350.091661 417 400.081476 437 450.071292 417 500.061107 437 550.050923 417 600.040738 437 650.030554 417 700.020369 437 750.010185 417 800 437"></polyline>
            <polyline id="Path-3-Copy-12" points="0 372 50.389734 352 100.379549 372 150.369365 352 200.35918 372 250.11203 352 300.101845 372 350.091661 352 400.081476 372 450.071292 352 500.061107 372 550.050923 352 600.040738 372 650.030554 352 700.020369 372 750.010185 352 800 372"></polyline>
            <polyline id="Path-3-Copy-13" points="0 402 50.389734 382 100.379549 402 150.369365 382 200.35918 402 250.11203 382 300.101845 402 350.091661 382 400.081476 402 450.071292 382 500.061107 402 550.050923 382 600.040738 402 650.030554 382 700.020369 402 750.010185 382 800 402"></polyline>
            <polyline id="Path-3-Copy-14" points="0 432 50.389734 412 100.379549 432 150.369365 412 200.35918 432 250.11203 412 300.101845 432 350.091661 412 400.081476 432 450.071292 412 500.061107 432 550.050923 412 600.040738 432 650.030554 412 700.020369 432 750.010185 412 800 432"></polyline>
            <polyline id="Path-3-Copy-13" points="0 397 50.389734 377 100.379549 397 150.369365 377 200.35918 397 250.11203 377 300.101845 397 350.091661 377 400.081476 397 450.071292 377 500.061107 397 550.050923 377 600.040738 397 650.030554 377 700.020369 397 750.010185 377 800 397"></polyline>
            <polyline id="Path-3-Copy-14" points="0 427 50.389734 407 100.379549 427 150.369365 407 200.35918 427 250.11203 407 300.101845 427 350.091661 407 400.081476 427 450.071292 407 500.061107 427 550.050923 407 600.040738 427 650.030554 407 700.020369 427 750.010185 407 800 427"></polyline>
            <polyline id="Path-3-Copy-13" points="0 392 50.389734 372 100.379549 392 150.369365 372 200.35918 392 250.11203 372 300.101845 392 350.091661 372 400.081476 392 450.071292 372 500.061107 392 550.050923 372 600.040738 392 650.030554 372 700.020369 392 750.010185 372 800 392"></polyline>
            <polyline id="Path-3-Copy-14" points="0 422 50.389734 402 100.379549 422 150.369365 402 200.35918 422 250.11203 402 300.101845 422 350.091661 402 400.081476 422 450.071292 402 500.061107 422 550.050923 402 600.040738 422 650.030554 402 700.020369 422 750.010185 402 800 422"></polyline>
            <polyline id="Path-3-Copy-12" points="0 387 50.389734 367 100.379549 387 150.369365 367 200.35918 387 250.11203 367 300.101845 387 350.091661 367 400.081476 387 450.071292 367 500.061107 387 550.050923 367 600.040738 387 650.030554 367 700.020369 387 750.010185 367 800 387"></polyline>
            <polyline id="Path-3-Copy-13" points="0 417 50.389734 397 100.379549 417 150.369365 397 200.35918 417 250.11203 397 300.101845 417 350.091661 397 400.081476 417 450.071292 397 500.061107 417 550.050923 397 600.040738 417 650.030554 397 700.020369 417 750.010185 397 800 417"></polyline>
            <polyline id="Path-3-Copy-14" points="0 447 50.389734 427 100.379549 447 150.369365 427 200.35918 447 250.11203 427 300.101845 447 350.091661 427 400.081476 447 450.071292 427 500.061107 447 550.050923 427 600.040738 447 650.030554 427 700.020369 447 750.010185 427 800 447"></polyline>
            <polyline id="Path-3-Copy-12" points="0 382 50.389734 362 100.379549 382 150.369365 362 200.35918 382 250.11203 362 300.101845 382 350.091661 362 400.081476 382 450.071292 362 500.061107 382 550.050923 362 600.040738 382 650.030554 362 700.020369 382 750.010185 362 800 382"></polyline>
            <polyline id="Path-3-Copy-13" points="0 412 50.389734 392 100.379549 412 150.369365 392 200.35918 412 250.11203 392 300.101845 412 350.091661 392 400.081476 412 450.071292 392 500.061107 412 550.050923 392 600.040738 412 650.030554 392 700.020369 412 750.010185 392 800 412"></polyline>
            <polyline id="Path-3-Copy-14" points="0 442 50.389734 422 100.379549 442 150.369365 422 200.35918 442 250.11203 422 300.101845 442 350.091661 422 400.081476 442 450.071292 422 500.061107 442 550.050923 422 600.040738 442 650.030554 422 700.020369 442 750.010185 422 800 442"></polyline>
        </g>
    </g>
</svg>