<svg xmlns="http://www.w3.org/2000/svg" xmlns:xlink="http://www.w3.org/1999/xlink" width="105" height="122" viewBox="0 0 105 122">
    <defs>
        <path id="b" d="M0 0h47.6v10.4H0z"/>
        <filter id="a" width="109.2%" height="161.5%" x="-4.6%" y="-21.2%" filterUnits="objectBoundingBox">
            <feMorphology in="SourceAlpha" operator="dilate" radius="1.2" result="shadowSpreadOuter1"/>
            <feOffset dy="2" in="shadowSpreadOuter1" result="shadowOffsetOuter1"/>
            <feComposite in="shadowOffsetOuter1" in2="SourceAlpha" operator="out" result="shadowOffsetOuter1"/>
            <feColorMatrix in="shadowOffsetOuter1" values="0 0 0 0 0 0 0 0 0 0 0 0 0 0 0 0 0 0 0.190274004 0"/>
        </filter>
    </defs>
    <g fill="none" fill-rule="evenodd">
        <path stroke="#979797" stroke-linecap="square" stroke-width=".5" d="M1 78.6h96"/>
        <text fill="#47505E" font-family="TeachableSans-SemiBold, TeachableSans" font-size="12" font-weight="500" letter-spacing=".56" transform="translate(1 1)">
            <tspan x="19.2" y="101.6">John Doe</tspan>
        </text>
        <text fill="#8592A6" font-family="TeachableSans-Medium, TeachableSans" font-size="9.6" font-weight="400" letter-spacing=".369" transform="translate(1 1)">
            <tspan x="10.4" y="117.8">CEO Teachable</tspan>
        </text>
        <g opacity=".54" transform="translate(44.2 1)">
            <path fill="#FFF" stroke="#404F54" stroke-linecap="round" stroke-width="1.2" d="M57.902 48.864h-9.856a1.6 1.6 0 0 1-1.6-1.6v-7.602a1.6 1.6 0 0 1 1.6-1.6h9.763a1.6 1.6 0 0 1 1.32 2.504l-1.883 2.746 1.999 3.081a1.6 1.6 0 0 1-1.343 2.471zM2.342 48.864h9.856a1.6 1.6 0 0 0 1.6-1.6v-7.602a1.6 1.6 0 0 0-1.6-1.6H2.435a1.6 1.6 0 0 0-1.32 2.504l1.883 2.746L1 46.393a1.6 1.6 0 0 0 1.342 2.471z"/>
            <path fill="#FFF" stroke="#404F54" stroke-linecap="round" stroke-width="1.2" d="M9.248 7.837L29.858.413a1.6 1.6 0 0 1 1.084 0l20.61 7.424a1.6 1.6 0 0 1 1.057 1.505v40.516a1.6 1.6 0 0 1-1.057 1.505l-20.61 7.424a1.6 1.6 0 0 1-1.084 0l-20.61-7.424a1.6 1.6 0 0 1-1.057-1.505V9.342a1.6 1.6 0 0 1 1.057-1.505z"/>
            <path stroke="#A3B9B8" stroke-linecap="round" stroke-linejoin="round" stroke-width=".8" d="M26.243 51.696l1.547-1.546 1.339 1.546 1.724-1.546 1.514 1.546 1.66-1.546 1.436 1.546"/>
            <path fill="#A3B9B8" d="M16.256 26.8l-.94.494.179-1.047-.761-.741 1.051-.153.47-.953.47.953 1.052.153-.76.741.18 1.047zM45.456 26.8l-.94.494.179-1.047-.761-.741 1.051-.153.47-.953.47.953 1.052.153-.76.741.18 1.047z"/>
            <g stroke-linecap="round" stroke-linejoin="round" stroke-width=".8">
                <path stroke="#66777C" d="M36.333 26.075v2.619a.8.8 0 0 1-.796.802h-10.54a.8.8 0 0 1-.797-.801v-6.083a.8.8 0 0 1 .801-.8h5.042M27.42 22.38v7.124"/>
                <path stroke="#A3B9B8" d="M29.87 26.173h1.617"/>
            </g>
            <g stroke-linecap="round" stroke-linejoin="round" stroke-width=".8" transform="translate(31.425 18.225)">
                <path stroke="#A3B9B8" d="M3.054.346s-1.26 1.269-.167 1.483c1.092.215.9.56.9 1.14 0 .58.593.615 1.013.19.42-.425.066-1.454.889-1.154.822.3 1.1-.299 1.1-.299M1.355 6.844s2.198-1.831 2.198.844"/>
                <circle cx="3.851" cy="4.057" r="3.851" stroke="#66777C"/>
            </g>
            <path stroke="#A3B9B8" stroke-linecap="round" stroke-linejoin="round" stroke-width=".8" d="M26.323 6.59l1.233-1.234 1.069 1.234L30 5.356l1.208 1.234 1.324-1.234 1.145 1.234"/>
            <circle cx="48.6" cy="11.8" r="1" fill="#A3B9B8"/>
            <circle cx="13" cy="11.8" r="1" fill="#A3B9B8"/>
            <text fill="#66777C" font-family="TeachableSans-Black, TeachableSans" font-size="3.6" font-weight="700" letter-spacing=".648">
                <tspan x="15.99" y="12.415">POWERED BY</tspan>
            </text>
            <g transform="translate(6.4 35.2)">
                <g stroke-linecap="round" stroke-linejoin="round">
                    <use fill="#000" filter="url(#a)" xlink:href="#b"/>
                    <use fill="#EBEBEB" xlink:href="#b"/>
                    <path stroke="#404F54" stroke-width="1.2" d="M-.6-.6h48.8V11H-.6z"/>
                </g>
                <path fill="#FFF" d="M0 1.633h47.6v7.134H0z"/>
                <circle cx="4.2" cy="5" r="1" fill="#66777C"/>
                <circle cx="43.4" cy="5" r="1" fill="#66777C"/>
                <g fill="#66777C">
                    <path d="M16.298 3.825c.361-.058.49-.335.587-.645h.34v.598h.778l-.129.457h-.651v1.349c0 .32.12.415.34.415a.766.766 0 0 0 .367-.1l.12.43a1.269 1.269 0 0 1-.642.168c-.775 0-.805-.463-.805-.887V4.235h-.364l.06-.41zM20.366 4.45c0 .75-.634.933-1.52.901.026.35.2.657.654.657.303 0 .529-.127.658-.215l.182.436a1.645 1.645 0 0 1-.91.268c-.884 0-1.212-.578-1.212-1.323 0-.813.455-1.463 1.291-1.463.528 0 .857.244.857.739zm-.883-.28c-.42 0-.602.395-.637.733.073.006.14.006.208.006.455 0 .754-.115.754-.43-.003-.218-.132-.309-.325-.309zM23.037 5.887c0 .106.026.141.114.147l.153.012v.377h-.775l-.014-.277-.015-.006c-.132.189-.361.35-.722.35-.763 0-1.045-.541-1.045-1.274 0-.925.455-1.505 1.38-1.505.173 0 .554.035.924.18v1.996zm-.61-1.637a1.157 1.157 0 0 0-.394-.068c-.516 0-.669.477-.669 1.013 0 .415.106.825.54.825.335 0 .522-.23.522-.478V4.25zM24.293 5.089c0 .53.188.898.655.898.202 0 .408-.074.616-.235l.235.42a1.46 1.46 0 0 1-.925.325c-.769 0-1.218-.472-1.218-1.382 0-1.054.655-1.404 1.26-1.404.32 0 .601.073.81.203v.745l-.488.035v-.309c0-.088-.011-.133-.088-.156a.931.931 0 0 0-.202-.027c-.405 0-.655.274-.655.887zM26.374 3.242c0-.115-.032-.147-.132-.153l-.167-.015V2.68h.904v1.463c.182-.341.496-.435.763-.435.607 0 .822.362.822.898V6.01l.267.014v.395h-1.163v-.371l.162-.015c.088-.012.109-.062.109-.174V4.744c0-.315-.068-.518-.42-.518-.32 0-.54.256-.54.571v1.217l.255.011v.398h-1.156v-.377l.152-.015c.1-.011.135-.04.135-.173V3.242h.01zM31.458 5.887c0 .106.026.141.114.147l.153.012v.377h-.775l-.015-.277-.014-.006c-.133.189-.361.35-.722.35-.764 0-1.045-.541-1.045-1.274 0-.925.455-1.505 1.38-1.505.172 0 .554.035.924.18v1.996zm-.614-1.637a1.157 1.157 0 0 0-.393-.068c-.517 0-.67.477-.67 1.013 0 .415.106.825.54.825.335 0 .523-.23.523-.478V4.25zM32.875 3.976a.923.923 0 0 1 .67-.268c.633 0 1.015.444 1.015 1.254 0 1.034-.47 1.532-1.256 1.532-.37 0-.825-.106-1.045-.227V3.242c0-.109-.035-.147-.132-.153l-.162-.015V2.68h.91v1.296zm0 1.937a.981.981 0 0 0 .45.107c.355 0 .601-.263.601-.96 0-.43-.106-.872-.581-.872-.273 0-.47.168-.47.403v1.322zM35.825 6.008l.276.02v.395h-1.177v-.377l.161-.015c.1-.014.127-.04.127-.173V3.242c0-.115-.033-.147-.132-.153l-.168-.015V2.68h.91v3.328h.003zM38.57 4.45c0 .75-.635.933-1.521.901.026.35.2.657.654.657.303 0 .529-.127.658-.215l.182.436a1.645 1.645 0 0 1-.91.268c-.883 0-1.212-.578-1.212-1.323 0-.813.455-1.463 1.291-1.463.529 0 .857.244.857.739zm-.884-.28c-.42 0-.602.395-.637.733.073.006.14.006.208.006.455 0 .755-.115.755-.43-.003-.218-.132-.309-.326-.309zM9.697 4.04h.506v.406a.842.842 0 0 1 .332-.329.984.984 0 0 1 .483-.116c.183 0 .325.045.424.134.1.089.164.2.194.331a.956.956 0 0 1 .339-.345.908.908 0 0 1 .467-.12c.133 0 .243.025.33.076.088.05.155.116.202.197.046.08.08.172.098.275.018.103.027.207.027.313V6.23h-.56V5c0-.175-.03-.304-.092-.385a.298.298 0 0 0-.25-.121.467.467 0 0 0-.31.128.69.69 0 0 0-.208.331V6.23h-.561V5c0-.175-.03-.304-.09-.385a.292.292 0 0 0-.25-.121.475.475 0 0 0-.31.125.688.688 0 0 0-.212.33v1.28h-.559V4.04zm4.233 0l.593 1.704.527-1.704h.526l-1.065 3.08h-.649a49.744 49.744 0 0 0 .255-.647c.04-.101.073-.182.1-.243l-.869-2.19h.582z"/>
                </g>
            </g>
        </g>
        <path stroke="#0F1720" stroke-width=".8" d="M24.2 70.766c19.733-14.933 30.133-25.866 31.2-32.8 1.6-10.4-8 28-5.6 30.4 2.4 2.4 15.2-36.8 12-40-3.2-3.2-11.2 40.8-3.2 44.8 5.333 2.667 11.733 0 19.2-8-26.667-8.533-45.867-9.333-57.6-2.4"/>
    </g>
</svg>
